<mxfile host="app.diagrams.net" agent="Mozilla/5.0 (Windows NT 10.0; Win64; x64) AppleWebKit/537.36 (KHTML, like Gecko) Chrome/135.0.0.0 Safari/537.36" version="26.2.15">
  <diagram name="Page-1" id="e7e014a7-5840-1c2e-5031-d8a46d1fe8dd">
    <mxGraphModel dx="1426" dy="711" grid="1" gridSize="10" guides="1" tooltips="1" connect="1" arrows="1" fold="1" page="1" pageScale="1" pageWidth="1169" pageHeight="826" background="none" math="0" shadow="0">
      <root>
        <mxCell id="0" />
        <mxCell id="1" parent="0" />
        <mxCell id="2" value="Customer" style="swimlane;whiteSpace=wrap" parent="1" vertex="1">
          <mxGeometry x="139" y="128" width="305.5" height="570" as="geometry" />
        </mxCell>
        <mxCell id="iM6wuMetMFg2LBtmJiii-48" value="" style="edgeStyle=orthogonalEdgeStyle;rounded=0;orthogonalLoop=1;jettySize=auto;html=1;" edge="1" parent="2" source="5" target="iM6wuMetMFg2LBtmJiii-41">
          <mxGeometry relative="1" as="geometry" />
        </mxCell>
        <mxCell id="5" value="" style="ellipse;shape=startState;fillColor=#000000;strokeColor=#ff0000;" parent="2" vertex="1">
          <mxGeometry x="100" y="40" width="30" height="30" as="geometry" />
        </mxCell>
        <mxCell id="38" value="" style="ellipse;shape=endState;fillColor=#000000;strokeColor=#ff0000" parent="2" vertex="1">
          <mxGeometry x="108.5" y="472" width="30" height="30" as="geometry" />
        </mxCell>
        <mxCell id="iM6wuMetMFg2LBtmJiii-41" value="Nhập thông tin đánh giá" style="rounded=1;whiteSpace=wrap;html=1;" vertex="1" parent="2">
          <mxGeometry x="62.5" y="112" width="105" height="48" as="geometry" />
        </mxCell>
        <mxCell id="iM6wuMetMFg2LBtmJiii-43" value="Thông báo chưa đặt xe" style="rounded=1;whiteSpace=wrap;html=1;" vertex="1" parent="2">
          <mxGeometry x="71" y="213.5" width="105" height="48" as="geometry" />
        </mxCell>
        <mxCell id="iM6wuMetMFg2LBtmJiii-56" style="edgeStyle=orthogonalEdgeStyle;rounded=0;orthogonalLoop=1;jettySize=auto;html=1;" edge="1" parent="2" source="iM6wuMetMFg2LBtmJiii-44">
          <mxGeometry relative="1" as="geometry">
            <mxPoint x="123.5" y="472" as="targetPoint" />
          </mxGeometry>
        </mxCell>
        <mxCell id="iM6wuMetMFg2LBtmJiii-44" value="Hiện thông báo đánh giá thành công" style="rounded=1;whiteSpace=wrap;html=1;" vertex="1" parent="2">
          <mxGeometry x="71" y="342" width="105" height="48" as="geometry" />
        </mxCell>
        <mxCell id="iM6wuMetMFg2LBtmJiii-52" style="edgeStyle=orthogonalEdgeStyle;rounded=0;orthogonalLoop=1;jettySize=auto;html=1;entryX=0.581;entryY=1.042;entryDx=0;entryDy=0;entryPerimeter=0;" edge="1" parent="2" source="iM6wuMetMFg2LBtmJiii-43" target="iM6wuMetMFg2LBtmJiii-41">
          <mxGeometry relative="1" as="geometry" />
        </mxCell>
        <mxCell id="3" value="Hệ thống" style="swimlane;whiteSpace=wrap;startSize=23;" parent="1" vertex="1">
          <mxGeometry x="445" y="128" width="280" height="570" as="geometry" />
        </mxCell>
        <mxCell id="iM6wuMetMFg2LBtmJiii-50" style="edgeStyle=orthogonalEdgeStyle;rounded=0;orthogonalLoop=1;jettySize=auto;html=1;" edge="1" parent="3" source="iM6wuMetMFg2LBtmJiii-42">
          <mxGeometry relative="1" as="geometry">
            <mxPoint x="140" y="202" as="targetPoint" />
          </mxGeometry>
        </mxCell>
        <mxCell id="iM6wuMetMFg2LBtmJiii-42" value="Kiểm tra xem người dùng đã đặt xe này chưa&lt;span style=&quot;color: rgba(0, 0, 0, 0); font-family: monospace; font-size: 0px; text-align: start; text-wrap-mode: nowrap;&quot;&gt;%3CmxGraphModel%3E%3Croot%3E%3CmxCell%20id%3D%220%22%2F%3E%3CmxCell%20id%3D%221%22%20parent%3D%220%22%2F%3E%3CmxCell%20id%3D%222%22%20value%3D%22Nh%E1%BA%ADp%20th%C3%B4ng%20tin%20%C4%91%C3%A1nh%20gi%C3%A1%22%20style%3D%22rounded%3D1%3BwhiteSpace%3Dwrap%3Bhtml%3D1%3B%22%20vertex%3D%221%22%20parent%3D%221%22%3E%3CmxGeometry%20x%3D%22201.5%22%20y%3D%22240%22%20width%3D%22105%22%20height%3D%2248%22%20as%3D%22geometry%22%2F%3E%3C%2FmxCell%3E%3C%2Froot%3E%3C%2FmxGraphModel%3E&lt;/span&gt;" style="rounded=1;whiteSpace=wrap;html=1;" vertex="1" parent="3">
          <mxGeometry x="87.5" y="112" width="105" height="48" as="geometry" />
        </mxCell>
        <mxCell id="iM6wuMetMFg2LBtmJiii-45" value="Hệ thống lưu đánh giá và database" style="rounded=1;whiteSpace=wrap;html=1;" vertex="1" parent="3">
          <mxGeometry x="87.5" y="342" width="105" height="48" as="geometry" />
        </mxCell>
        <mxCell id="iM6wuMetMFg2LBtmJiii-53" style="edgeStyle=orthogonalEdgeStyle;rounded=0;orthogonalLoop=1;jettySize=auto;html=1;entryX=0.5;entryY=0;entryDx=0;entryDy=0;" edge="1" parent="3" source="iM6wuMetMFg2LBtmJiii-47" target="iM6wuMetMFg2LBtmJiii-45">
          <mxGeometry relative="1" as="geometry" />
        </mxCell>
        <mxCell id="iM6wuMetMFg2LBtmJiii-47" value="" style="rhombus;whiteSpace=wrap;html=1;" vertex="1" parent="3">
          <mxGeometry x="104.5" y="205" width="72" height="65" as="geometry" />
        </mxCell>
        <mxCell id="iM6wuMetMFg2LBtmJiii-54" style="edgeStyle=orthogonalEdgeStyle;rounded=0;orthogonalLoop=1;jettySize=auto;html=1;exitX=0.5;exitY=1;exitDx=0;exitDy=0;" edge="1" parent="3" source="iM6wuMetMFg2LBtmJiii-45" target="iM6wuMetMFg2LBtmJiii-45">
          <mxGeometry relative="1" as="geometry" />
        </mxCell>
        <mxCell id="iM6wuMetMFg2LBtmJiii-57" value="Chưa đặt" style="text;html=1;align=center;verticalAlign=middle;whiteSpace=wrap;rounded=0;" vertex="1" parent="3">
          <mxGeometry x="15.5" y="205" width="60" height="30" as="geometry" />
        </mxCell>
        <mxCell id="iM6wuMetMFg2LBtmJiii-58" value="Đã đặt" style="text;html=1;align=center;verticalAlign=middle;whiteSpace=wrap;rounded=0;" vertex="1" parent="3">
          <mxGeometry x="155.5" y="285" width="60" height="30" as="geometry" />
        </mxCell>
        <mxCell id="iM6wuMetMFg2LBtmJiii-49" style="edgeStyle=orthogonalEdgeStyle;rounded=0;orthogonalLoop=1;jettySize=auto;html=1;entryX=0;entryY=0.5;entryDx=0;entryDy=0;" edge="1" parent="1" source="iM6wuMetMFg2LBtmJiii-41" target="iM6wuMetMFg2LBtmJiii-42">
          <mxGeometry relative="1" as="geometry" />
        </mxCell>
        <mxCell id="iM6wuMetMFg2LBtmJiii-51" style="edgeStyle=orthogonalEdgeStyle;rounded=0;orthogonalLoop=1;jettySize=auto;html=1;entryX=1;entryY=0.5;entryDx=0;entryDy=0;" edge="1" parent="1" source="iM6wuMetMFg2LBtmJiii-47" target="iM6wuMetMFg2LBtmJiii-43">
          <mxGeometry relative="1" as="geometry" />
        </mxCell>
        <mxCell id="iM6wuMetMFg2LBtmJiii-55" style="edgeStyle=orthogonalEdgeStyle;rounded=0;orthogonalLoop=1;jettySize=auto;html=1;entryX=1;entryY=0.5;entryDx=0;entryDy=0;" edge="1" parent="1" source="iM6wuMetMFg2LBtmJiii-45" target="iM6wuMetMFg2LBtmJiii-44">
          <mxGeometry relative="1" as="geometry" />
        </mxCell>
        <mxCell id="iM6wuMetMFg2LBtmJiii-59" value="Chức năng đánh giá" style="rounded=0;whiteSpace=wrap;html=1;" vertex="1" parent="1">
          <mxGeometry x="139" y="88" width="585" height="40" as="geometry" />
        </mxCell>
      </root>
    </mxGraphModel>
  </diagram>
</mxfile>
